<svg version="1.1" xmlns="http://www.w3.org/2000/svg" viewBox="0 0 1480 960" width="4440" height="2880">
  <!-- svg-source:excalidraw -->
  
  <defs>
    <style>
      @font-face {
        font-family: "Virgil";
        src: url("https://excalidraw.com/Virgil.woff2");
      }
      @font-face {
        font-family: "Cascadia";
        src: url("https://excalidraw.com/Cascadia.woff2");
      }
    </style>
  </defs>
  <rect x="0" y="0" width="1480" height="960" fill="#ffffff"></rect><g stroke-linecap="round" transform="translate(830 310) rotate(0 320 320)"><path d="M-0.65 -0.53 C233.83 -1.9, 469.06 -1.81, 639.89 -0.13 M-0.27 -0.31 C196.09 -0.06, 392.77 0.7, 640.34 -0.15 M639.23 0.36 C642.24 246.4, 642.48 492.21, 640.47 640.41 M639.88 -0.17 C641.44 196.88, 641.07 393.15, 639.78 639.96 M639.76 640.8 C429.64 639.7, 217.89 639.66, 0.71 640.43 M640.2 639.79 C444.23 641.85, 248.46 641.69, 0.32 639.84 M-0.31 639.5 C1.72 503.51, 1.64 366.27, 0.71 0.68 M0.04 640.08 C-1.18 496.47, -1.17 352.78, -0.34 -0.11" stroke="#000000" stroke-width="1" fill="none"></path></g><g transform="translate(1050 255) rotate(0 87.5 12.5)"><text x="0" y="18" font-family="Virgil, Segoe UI Emoji" font-size="20px" fill="#000000" text-anchor="start" style="white-space: pre;" direction="ltr">Contract Account</text></g><g stroke-linecap="round" transform="translate(870 450) rotate(0 60 30)"><path d="M86.23 2.29 C95.74 4.27, 105.38 9.64, 111.05 14.35 C116.73 19.06, 120.39 25.21, 120.26 30.55 C120.13 35.89, 116.45 41.95, 110.29 46.39 C104.12 50.83, 93.33 54.87, 83.27 57.2 C73.2 59.54, 60.48 61.24, 49.9 60.38 C39.31 59.53, 27.76 55.8, 19.74 52.06 C11.72 48.33, 4.7 43.27, 1.78 37.96 C-1.15 32.64, -0.93 25.44, 2.19 20.19 C5.32 14.93, 12.12 9.83, 20.52 6.45 C28.91 3.08, 41.16 0.48, 52.57 -0.08 C63.98 -0.64, 82.55 2.42, 88.97 3.09 C95.39 3.75, 91.66 3.45, 91.06 3.92 M36.71 2.25 C46.21 0.04, 61.08 -0.52, 71.87 0.64 C82.67 1.81, 93.91 5.55, 101.49 9.24 C109.07 12.93, 114.62 17.66, 117.36 22.79 C120.11 27.93, 121.26 35.01, 117.97 40.05 C114.68 45.1, 106.41 49.87, 97.6 53.08 C88.79 56.29, 75.99 58.68, 65.11 59.3 C54.24 59.92, 41.72 58.97, 32.36 56.79 C23 54.62, 14.12 51.12, 8.93 46.26 C3.73 41.39, 0.9 33.28, 1.19 27.58 C1.48 21.88, 4.43 16.23, 10.68 12.05 C16.94 7.87, 34.3 4.27, 38.7 2.51 C43.1 0.75, 37.1 1.18, 37.08 1.47" stroke="#000000" stroke-width="1" fill="none"></path></g><g transform="translate(875 467.5) rotate(0 55 12.5)"><text x="55" y="18" font-family="Virgil, Segoe UI Emoji" font-size="20px" fill="#000000" text-anchor="middle" style="white-space: pre;" direction="ltr">Address</text></g><g stroke-linecap="round" transform="translate(1050 350) rotate(0 120 240)"><path d="M-0.98 0.39 C59.71 2.56, 119.65 2.65, 238.42 -0.38 M-0.35 -0.3 C64.16 1.74, 128.38 1.43, 240.62 -0.46 M240.07 -0.2 C240.92 146.99, 241.21 294.6, 240.37 480.6 M239.78 0.42 C238.37 180.35, 237.91 360.8, 239.78 480.27 M240.57 480.47 C152.05 481.18, 63.2 480.54, -0.35 480.08 M239.28 480.64 C166.03 478.67, 91.31 478.5, -0.44 480.51 M-0.47 480.75 C1.44 311.31, 2.03 142.27, 0.63 -0.62 M0.42 479.76 C-0.45 309.02, 0.01 138.32, -0.06 0.09" stroke="#000000" stroke-width="1" fill="none"></path></g><g transform="translate(1070 375) rotate(0 73 12.5)"><text x="0" y="18" font-family="Virgil, Segoe UI Emoji" font-size="20px" fill="#000000" text-anchor="start" style="white-space: pre;" direction="ltr">Account State</text></g><g stroke-linecap="round" transform="translate(1110 450) rotate(0 60 30)"><path d="M34.45 1.82 C43.2 -0.8, 56.81 -1.23, 67.68 -0.24 C78.55 0.75, 91.47 4.06, 99.68 7.76 C107.88 11.46, 114 16.73, 116.9 21.96 C119.81 27.2, 119.96 33.97, 117.11 39.18 C114.25 44.39, 107.67 49.67, 99.78 53.24 C91.89 56.81, 80.4 60.02, 69.78 60.59 C59.16 61.15, 45.99 59, 36.07 56.64 C26.14 54.27, 16.3 50.65, 10.24 46.39 C4.18 42.13, -0.03 36.65, -0.27 31.11 C-0.5 25.56, 2.48 17.91, 8.82 13.1 C15.16 8.3, 32.25 4.17, 37.74 2.29 C43.23 0.41, 41.27 1.27, 41.76 1.83 M69.83 0.58 C80.42 0.9, 92.53 2.74, 100.39 6.55 C108.25 10.36, 113.95 17.94, 116.98 23.41 C120.01 28.88, 121.85 34.59, 118.55 39.39 C115.25 44.19, 105.62 48.83, 97.2 52.2 C88.77 55.57, 78.29 58.77, 68.02 59.62 C57.74 60.47, 45.47 59.52, 35.57 57.31 C25.67 55.1, 14.36 51, 8.62 46.36 C2.87 41.72, 1.13 34.93, 1.12 29.48 C1.1 24.04, 2.84 18.26, 8.54 13.7 C14.25 9.14, 25.3 4.53, 35.33 2.12 C45.35 -0.3, 62.93 -0.84, 68.71 -0.79 C74.49 -0.73, 70.26 1.89, 70 2.44" stroke="#000000" stroke-width="1" fill="none"></path></g><g transform="translate(1115 467.5) rotate(0 55 12.5)"><text x="55" y="18" font-family="Virgil, Segoe UI Emoji" font-size="20px" fill="#000000" text-anchor="middle" style="white-space: pre;" direction="ltr">nounce</text></g><g stroke-linecap="round" transform="translate(1110 530) rotate(0 60 30)"><path d="M60.89 -0.79 C71.13 -1.2, 84.11 2.28, 93.08 5.42 C102.04 8.56, 110.29 12.99, 114.67 18.05 C119.05 23.11, 121.03 30.6, 119.37 35.8 C117.7 40.99, 112.08 45.3, 104.7 49.22 C97.32 53.13, 85.56 57.68, 75.08 59.29 C64.61 60.9, 52.2 60.68, 41.86 58.89 C31.52 57.1, 19.77 52.64, 13.02 48.55 C6.28 44.47, 2.5 39.81, 1.4 34.37 C0.29 28.93, 1.91 20.88, 6.39 15.91 C10.88 10.95, 17.99 7.05, 28.29 4.58 C38.59 2.12, 60.44 1.68, 68.2 1.12 C75.96 0.56, 74.91 0.75, 74.84 1.23 M57.47 -0.41 C67.84 -1.24, 80.56 -0.01, 90.07 3.08 C99.58 6.16, 109.82 13.21, 114.53 18.11 C119.24 23, 119.78 27.1, 118.31 32.47 C116.85 37.83, 112.56 45.93, 105.75 50.28 C98.94 54.63, 87.51 57.25, 77.47 58.58 C67.42 59.92, 55.85 59.54, 45.47 58.28 C35.08 57.02, 22.52 54.79, 15.16 51.02 C7.81 47.24, 3.19 41.27, 1.35 35.62 C-0.49 29.96, -0.11 22.28, 4.11 17.1 C8.33 11.93, 17.75 7.19, 26.68 4.57 C35.61 1.95, 52.65 2.2, 57.68 1.37 C62.71 0.53, 56.94 -0.67, 56.89 -0.44" stroke="#000000" stroke-width="1" fill="none"></path></g><g transform="translate(1115 547.5) rotate(0 55 12.5)"><text x="55" y="18" font-family="Virgil, Segoe UI Emoji" font-size="20px" fill="#000000" text-anchor="middle" style="white-space: pre;" direction="ltr">balance</text></g><g stroke-linecap="round" transform="translate(1090 610) rotate(0 80 40)"><path d="M58.86 0.5 C69.64 -1.76, 84.23 -0.51, 96.28 1.09 C108.32 2.69, 121.49 6.22, 131.12 10.1 C140.74 13.98, 149.22 18.67, 154.03 24.37 C158.85 30.08, 161.15 38.29, 160 44.35 C158.85 50.41, 153.88 55.73, 147.12 60.75 C140.37 65.78, 130.32 71.36, 119.49 74.5 C108.67 77.63, 94.7 79.21, 82.15 79.55 C69.61 79.88, 55.16 79.3, 44.23 76.52 C33.29 73.73, 23.87 68.01, 16.56 62.83 C9.25 57.65, 2.26 51.56, 0.38 45.43 C-1.5 39.3, 1.17 31.76, 5.31 26.05 C9.45 20.34, 15.8 15.43, 25.22 11.16 C34.63 6.89, 54.86 2.01, 61.8 0.43 C68.74 -1.15, 66.44 0.98, 66.86 1.67 M44.69 5.38 C54.43 2.22, 68.99 -0.96, 81.29 -1.04 C93.59 -1.12, 107.32 1.59, 118.46 4.89 C129.61 8.2, 141.1 13.54, 148.15 18.8 C155.19 24.06, 159.78 30.62, 160.74 36.47 C161.7 42.32, 159.02 48.45, 153.92 53.91 C148.83 59.37, 139.52 64.88, 130.17 69.23 C120.82 73.58, 109.89 78.38, 97.81 79.99 C85.73 81.61, 70.04 80.8, 57.69 78.92 C45.34 77.04, 32.38 72.89, 23.73 68.73 C15.07 64.58, 9.69 59.78, 5.77 54 C1.84 48.22, -1.47 40.55, 0.18 34.06 C1.83 27.56, 8.29 19.82, 15.65 15.01 C23.01 10.2, 39.15 6.89, 44.33 5.18 C49.51 3.47, 45.87 4.39, 46.74 4.75" stroke="#000000" stroke-width="1" fill="none"></path></g><g transform="translate(1095 637.5) rotate(0 75 12.5)"><text x="75" y="18" font-family="Virgil, Segoe UI Emoji" font-size="20px" fill="#000000" text-anchor="middle" style="white-space: pre;" direction="ltr">storage hash</text></g><g stroke-linecap="round" transform="translate(1090 710) rotate(0 80 40)"><path d="M58.05 2.3 C69.07 -0.02, 84.09 -0.19, 96.02 0.81 C107.95 1.82, 120.2 4.28, 129.63 8.31 C139.06 12.34, 147.47 19.27, 152.58 24.99 C157.7 30.71, 161.11 36.75, 160.33 42.65 C159.55 48.56, 154.66 54.92, 147.9 60.41 C141.14 65.89, 130.44 72.38, 119.77 75.56 C109.11 78.74, 96.23 79.37, 83.9 79.48 C71.57 79.59, 57.24 78.85, 45.79 76.2 C34.34 73.55, 22.55 68.45, 15.22 63.61 C7.88 58.76, 3.66 53.06, 1.8 47.14 C-0.05 41.21, 0.34 34.17, 4.1 28.06 C7.86 21.94, 15.01 15.01, 24.36 10.45 C33.71 5.89, 53.48 2.22, 60.19 0.71 C66.91 -0.79, 64.35 0.59, 64.67 1.42 M85.95 -0.06 C97.62 -0.33, 112.24 1.38, 122.88 4.9 C133.52 8.42, 143.46 15.24, 149.77 21.07 C156.07 26.89, 160.43 34.06, 160.68 39.85 C160.94 45.65, 156.7 50.54, 151.3 55.81 C145.9 61.08, 138.12 67.49, 128.27 71.49 C118.43 75.49, 104.55 78.77, 92.22 79.81 C79.88 80.86, 65.7 79.54, 54.28 77.75 C42.85 75.96, 32.29 73.67, 23.66 69.09 C15.03 64.51, 6.35 56.24, 2.47 50.26 C-1.41 44.27, -2.29 39.01, 0.39 33.17 C3.06 27.34, 10.63 20.48, 18.51 15.26 C26.38 10.03, 36.22 4.36, 47.63 1.82 C59.05 -0.71, 80.47 0.28, 87 0.07 C93.52 -0.14, 86.83 0, 86.78 0.58" stroke="#000000" stroke-width="1" fill="none"></path></g><g transform="translate(1095 737.5) rotate(0 75 12.5)"><text x="75" y="18" font-family="Virgil, Segoe UI Emoji" font-size="20px" fill="#000000" text-anchor="middle" style="white-space: pre;" direction="ltr">code hash</text></g><g stroke-linecap="round" transform="translate(1350.052445782082 670) rotate(0 28.222539535441456 3.9810838123387384)"><path d="M56.45 3.98 C56.45 4.21, 56.3 4.45, 56.02 4.67 C55.73 4.9, 55.3 5.13, 54.74 5.34 C54.18 5.56, 53.48 5.77, 52.66 5.97 C51.85 6.17, 50.89 6.36, 49.84 6.54 C48.79 6.72, 47.62 6.88, 46.36 7.03 C45.11 7.18, 43.75 7.31, 42.33 7.43 C40.92 7.54, 39.41 7.64, 37.88 7.72 C36.34 7.8, 34.73 7.86, 33.12 7.9 C31.51 7.94, 29.86 7.96, 28.22 7.96 C26.59 7.96, 24.93 7.94, 23.32 7.9 C21.71 7.86, 20.1 7.8, 18.57 7.72 C17.03 7.64, 15.53 7.54, 14.11 7.43 C12.7 7.31, 11.33 7.18, 10.08 7.03 C8.83 6.88, 7.65 6.72, 6.6 6.54 C5.55 6.36, 4.6 6.17, 3.78 5.97 C2.96 5.77, 2.26 5.56, 1.7 5.34 C1.14 5.13, 0.71 4.9, 0.43 4.67 C0.15 4.45, 0 4.21, 0 3.98 C0 3.75, 0.15 3.52, 0.43 3.29 C0.71 3.06, 1.14 2.84, 1.7 2.62 C2.26 2.4, 2.96 2.19, 3.78 1.99 C4.6 1.79, 5.55 1.6, 6.6 1.42 C7.65 1.25, 8.83 1.08, 10.08 0.93 C11.33 0.78, 12.7 0.65, 14.11 0.53 C15.53 0.42, 17.03 0.32, 18.57 0.24 C20.1 0.16, 21.71 0.1, 23.32 0.06 C24.93 0.02, 26.59 0, 28.22 0 C29.86 0, 31.51 0.02, 33.12 0.06 C34.73 0.1, 36.34 0.16, 37.88 0.24 C39.41 0.32, 40.92 0.42, 42.33 0.53 C43.75 0.65, 45.11 0.78, 46.36 0.93 C47.62 1.08, 48.79 1.25, 49.84 1.42 C50.89 1.6, 51.85 1.79, 52.66 1.99 C53.48 2.19, 54.18 2.4, 54.74 2.62 C55.3 2.84, 55.73 3.06, 56.02 3.29 C56.3 3.52, 56.37 3.87, 56.45 3.98 C56.52 4.1, 56.52 3.87, 56.45 3.98" stroke="#000000" stroke-width="1" fill="none"></path></g><g stroke-linecap="round" transform="translate(1350 701.1354486762156) rotate(0 28.272204874797467 5.355234727136704)"><path d="M56.54 5.36 C56.54 5.67, 56.4 5.98, 56.11 6.29 C55.83 6.59, 55.4 6.9, 54.84 7.19 C54.28 7.48, 53.57 7.76, 52.76 8.03 C51.94 8.3, 50.98 8.56, 49.93 8.8 C48.88 9.03, 47.7 9.26, 46.45 9.46 C45.19 9.66, 43.83 9.84, 42.41 9.99 C40.99 10.15, 39.48 10.28, 37.94 10.39 C36.4 10.49, 34.79 10.58, 33.18 10.63 C31.57 10.68, 29.91 10.71, 28.27 10.71 C26.64 10.71, 24.97 10.68, 23.36 10.63 C21.75 10.58, 20.14 10.49, 18.6 10.39 C17.06 10.28, 15.55 10.15, 14.14 9.99 C12.72 9.84, 11.35 9.66, 10.1 9.46 C8.85 9.26, 7.67 9.03, 6.61 8.8 C5.56 8.56, 4.61 8.3, 3.79 8.03 C2.97 7.76, 2.26 7.48, 1.71 7.19 C1.15 6.9, 0.71 6.59, 0.43 6.29 C0.15 5.98, 0 5.67, 0 5.36 C0 5.05, 0.15 4.73, 0.43 4.43 C0.71 4.12, 1.15 3.81, 1.71 3.52 C2.26 3.23, 2.97 2.95, 3.79 2.68 C4.61 2.41, 5.56 2.15, 6.61 1.91 C7.67 1.68, 8.85 1.45, 10.1 1.25 C11.35 1.05, 12.72 0.87, 14.14 0.72 C15.55 0.56, 17.06 0.43, 18.6 0.32 C20.14 0.22, 21.75 0.14, 23.36 0.08 C24.97 0.03, 26.64 0, 28.27 0 C29.91 0, 31.57 0.03, 33.18 0.08 C34.79 0.14, 36.4 0.22, 37.94 0.32 C39.48 0.43, 40.99 0.56, 42.41 0.72 C43.83 0.87, 45.19 1.05, 46.45 1.25 C47.7 1.45, 48.88 1.68, 49.93 1.91 C50.98 2.15, 51.94 2.41, 52.76 2.68 C53.57 2.95, 54.28 3.23, 54.84 3.52 C55.4 3.81, 55.83 4.12, 56.11 4.43 C56.4 4.73, 56.47 5.2, 56.54 5.36 C56.62 5.51, 56.62 5.2, 56.54 5.36" stroke="#000000" stroke-width="1" fill="none"></path></g><g stroke-linecap="round" transform="translate(1350.7698222045717 697.4672907816041) rotate(0 27.541892257558516 3.550625362603924)"><path d="M0 0 L55.08 0 L55.08 7.1 L0 7.1" stroke="none" stroke-width="0" fill="#fff"></path><path d="M0 0 C13.88 0, 27.76 0, 55.08 0 M0 0 C11.71 0, 23.42 0, 55.08 0 M55.08 0 C55.08 1.97, 55.08 3.95, 55.08 7.1 M55.08 0 C55.08 1.48, 55.08 2.97, 55.08 7.1 M55.08 7.1 C43.95 7.1, 32.82 7.1, 0 7.1 M55.08 7.1 C33.17 7.1, 11.25 7.1, 0 7.1 M0 7.1 C0 4.45, 0 1.8, 0 0 M0 7.1 C0 5.03, 0 2.96, 0 0" stroke="#ffff" stroke-width="4" fill="none"></path></g><g stroke-linecap="round"><g transform="translate(1406.455154987188 673.9064455057363) rotate(0 0.09082359643468862 16.27922981531333)"><path d="M0 0 C0.03 5.43, 0.15 27.13, 0.18 32.56 M0 0 C0.03 5.43, 0.15 27.13, 0.18 32.56" stroke="#000000" stroke-width="1" fill="none"></path></g></g><g stroke-linecap="round"><g transform="translate(1350.1169826637329 674.141023040773) rotate(0 -0.050507124768842004 16.412570788787605)"><path d="M0 0 C-0.02 5.47, -0.08 27.35, -0.1 32.83 M0 0 C-0.02 5.47, -0.08 27.35, -0.1 32.83" stroke="#000000" stroke-width="1" fill="none"></path></g></g><g stroke-linecap="round" transform="translate(1350 770) rotate(0 40 30)"><path d="M-0.64 -0.26 C19.19 0.77, 37.39 1.69, 79.02 0.5 M0.01 -0.87 C26.68 -0.98, 53.23 0.08, 80.44 -0.36 M78.72 -1.48 C79.34 19.07, 80.35 36.56, 78.69 58.07 M79.2 -0.45 C80.83 18.59, 79.67 35.85, 79.01 60.84 M79.42 58.39 C62.47 59.28, 47.86 59.05, -0.54 59.62 M79.19 59.83 C61.91 59.51, 43.01 60.88, 0.53 59.38 M0.41 61.33 C0.52 41.62, -1.52 19.87, 0.09 -0.28 M-0.76 60.77 C0.67 42.94, 0.77 25.53, -0.19 0.07" stroke="#000000" stroke-width="1" fill="none"></path></g><g stroke-linecap="round"><g transform="translate(1250 650) rotate(0 50.55690765120096 20.0892311181873)"><path d="M0.48 0.92 C17.13 7.58, 83.99 32.79, 100.63 39.26" stroke="#000000" stroke-width="1.5" fill="none" stroke-dasharray="8 9"></path></g><g transform="translate(1250 650) rotate(0 50.55690765120096 20.0892311181873)"><path d="M72.17 39.83 C80.22 39.36, 91.83 39.21, 101.05 40.58" stroke="#000000" stroke-width="1.5" fill="none"></path></g><g transform="translate(1250 650) rotate(0 50.55690765120096 20.0892311181873)"><path d="M79.5 20.66 C84.79 27.13, 93.76 33.9, 101.05 40.58" stroke="#000000" stroke-width="1.5" fill="none"></path></g></g><g stroke-linecap="round"><g transform="translate(1250.996174498153 750.3984698123396) rotate(0 48.90361361379314 19.403116675021806)"><path d="M0.05 -0.17 C16.51 6.42, 81.62 32.57, 97.75 38.98" stroke="#000000" stroke-width="1.5" fill="none" stroke-dasharray="8 9"></path></g><g transform="translate(1250.996174498153 750.3984698123396) rotate(0 48.90361361379314 19.403116675021806)"><path d="M67.49 37.62 C73.9 36.36, 79.27 39.98, 98.86 38.36" stroke="#000000" stroke-width="1.5" fill="none"></path></g><g transform="translate(1250.996174498153 750.3984698123396) rotate(0 48.90361361379314 19.403116675021806)"><path d="M75.1 18.57 C79.77 21.45, 83.48 29.21, 98.86 38.36" stroke="#000000" stroke-width="1.5" fill="none"></path></g></g><g transform="translate(1350 710) rotate(0 38.5 12.5)"><text x="0" y="18" font-family="Virgil, Segoe UI Emoji" font-size="20px" fill="#000000" text-anchor="start" style="white-space: pre;" direction="ltr">storage</text></g><g transform="translate(1350 835) rotate(0 22 12.5)"><text x="0" y="18" font-family="Virgil, Segoe UI Emoji" font-size="20px" fill="#000000" text-anchor="start" style="white-space: pre;" direction="ltr">code</text></g><g stroke-linecap="round"><g transform="translate(990 490) rotate(0 29.533596765082393 0.2940896662697199)"><path d="M-0.13 0 C10.06 -0.05, 50.88 0.11, 60.72 0.06 M-1.65 -1.04 C8.48 -0.92, 49.66 1.3, 60.15 1.63" stroke="#000000" stroke-width="1" fill="none"></path></g><g transform="translate(990 490) rotate(0 29.533596765082393 0.2940896662697199)"><path d="M31.54 11.85 C39.19 6.48, 46.23 7.82, 61.33 2.79 M30.92 9.73 C43.44 8.05, 54.5 2.65, 59.66 1.09" stroke="#000000" stroke-width="1" fill="none"></path></g><g transform="translate(990 490) rotate(0 29.533596765082393 0.2940896662697199)"><path d="M32.43 -8.65 C39.91 -8.58, 46.72 -1.82, 61.33 2.79 M31.81 -10.78 C44.14 -4.45, 54.86 -1.86, 59.66 1.09" stroke="#000000" stroke-width="1" fill="none"></path></g></g><g stroke-linecap="round" transform="translate(45.11898867863283 10) rotate(0 13.43681724700491 10.420131957574739)"><path d="M18.91 0.54 C21.16 1.45, 23.52 3.66, 24.77 5.85 C26.01 8.04, 26.86 11.36, 26.37 13.68 C25.88 15.99, 24.35 18.59, 21.82 19.73 C19.29 20.88, 14.17 20.9, 11.2 20.55 C8.23 20.2, 5.75 19.1, 4 17.62 C2.25 16.15, 1.11 13.8, 0.73 11.68 C0.35 9.56, 0.19 6.95, 1.72 4.91 C3.25 2.86, 6.61 0, 9.93 -0.58 C13.25 -1.17, 19.57 0.77, 21.64 1.38 C23.71 1.99, 22.53 2.73, 22.36 3.07 M12.18 1.38 C14.9 0.5, 19.13 -0.62, 21.36 0.25 C23.59 1.11, 24.97 4.46, 25.54 6.57 C26.11 8.67, 25.89 10.52, 24.78 12.87 C23.66 15.23, 21.3 19.17, 18.84 20.7 C16.37 22.23, 12.63 22.51, 9.99 22.06 C7.36 21.6, 4.68 19.88, 3.03 17.96 C1.39 16.04, 0.05 12.77, 0.12 10.56 C0.19 8.34, 1.56 6.23, 3.47 4.69 C5.37 3.14, 10.08 2.05, 11.54 1.29 C13 0.52, 12.19 0.3, 12.23 0.08" stroke="#000000" stroke-width="1" fill="none"></path></g><g stroke-linecap="round"><g transform="translate(58.67906084938204 31.700147582965997) rotate(0 1.273532892097819 31.199494946731107)"><path d="M0.98 1.1 C1.52 11.43, 2.5 50.79, 2.51 60.83 M0.03 0.64 C0.56 11.16, 2.02 51.49, 2.02 61.76" stroke="#000000" stroke-width="1" fill="none"></path></g></g><g stroke-linecap="round"><g transform="translate(29.777305460293064 44.02493654406197) rotate(0 30.70269196492609 -0.3291491701696714)"><path d="M1.1 0.86 C11.13 0.45, 49.33 -1.02, 59.07 -1.52 M0.22 0.27 C10.7 -0.08, 51.48 -0.01, 61.18 -0.29" stroke="#000000" stroke-width="1" fill="none"></path></g></g><g stroke-linecap="round"><g transform="translate(35.17399961358069 116.27024603296348) rotate(0 12.989154307480248 -11.196872497440324)"><path d="M0.86 -1.15 C4.65 -5.21, 20.01 -19.6, 23.72 -23.26 M-0.15 0.86 C3.96 -2.54, 21.87 -18.25, 26.12 -22.06" stroke="#000000" stroke-width="1" fill="none"></path></g></g><g stroke-linecap="round"><g transform="translate(60.94081335687633 93.3606785568067) rotate(0 11.386662825609164 10.013452751065103)"><path d="M-1.15 -0.58 C2.26 2.56, 17.74 16.1, 21.55 19.69 M0.45 1.73 C4.16 4.89, 20.54 17.19, 23.92 20.61" stroke="#000000" stroke-width="1" fill="none"></path></g></g><g stroke-linecap="round"><g transform="translate(110.02888086642633 58.953068592057775) rotate(0 19.956678700360953 -0.014440433212996595)" fill-rule="evenodd"><path d="M0 0 L5.2 -8.95 L15.42 -8.92 L17.96 -4.51 L37.52 -4.51 L39.91 0.03 L37.46 4.39 L17.94 4.42 L15.45 8.92 L5.14 8.9 L0 0" stroke="none" stroke-width="0" fill="#4e4d4e" fill-rule="evenodd"></path><path d="M0 0 C1.22 -2.11, 2.45 -4.22, 5.2 -8.95 M0 0 C1.05 -1.8, 2.09 -3.6, 5.2 -8.95 M5.2 -8.95 C8.37 -8.94, 11.53 -8.94, 15.42 -8.92 M5.2 -8.95 C7.52 -8.95, 9.84 -8.94, 15.42 -8.92 M15.42 -8.92 C16.08 -7.77, 16.74 -6.63, 17.96 -4.51 M15.42 -8.92 C15.97 -7.98, 16.51 -7.03, 17.96 -4.51 M17.96 -4.51 C24.87 -4.51, 31.77 -4.51, 37.52 -4.51 M17.96 -4.51 C23.06 -4.51, 28.15 -4.51, 37.52 -4.51 M37.52 -4.51 C38 -3.59, 38.48 -2.68, 39.91 0.03 M37.52 -4.51 C38.31 -3, 39.11 -1.5, 39.91 0.03 M39.91 0.03 C39.4 0.94, 38.89 1.85, 37.46 4.39 M39.91 0.03 C39.26 1.19, 38.61 2.35, 37.46 4.39 M37.46 4.39 C31.21 4.4, 24.96 4.41, 17.94 4.42 M37.46 4.39 C32.07 4.4, 26.69 4.41, 17.94 4.42 M17.94 4.42 C17.28 5.61, 16.62 6.81, 15.45 8.92 M17.94 4.42 C17.06 6, 16.19 7.58, 15.45 8.92 M15.45 8.92 C12.27 8.92, 9.1 8.91, 5.14 8.9 M15.45 8.92 C11.71 8.91, 7.96 8.9, 5.14 8.9 M5.14 8.9 C3.64 6.3, 2.14 3.71, 0 0 M5.14 8.9 C3.77 6.52, 2.39 4.14, 0 0 M0 0 C0 0, 0 0, 0 0 M0 0 C0 0, 0 0, 0 0" stroke="#4e4d4e" stroke-width="1" fill="none"></path></g></g><g stroke-linecap="round"><g transform="translate(112.6281588447655 54.447653429603236) rotate(0 17.371841155234506 4.476534296028888)" fill-rule="evenodd"><path d="M0 0 C0 0, 0 0, 0 0 M0 0 C0 0, 0 0, 0 0 M-0.26 6.4 C1.58 4.27, 3.43 2.15, 4.99 0.36 M-0.26 6.4 C1.14 4.78, 2.55 3.17, 4.99 0.36 M1.45 10.53 C3.61 8.05, 5.77 5.56, 10.63 -0.03 M1.45 10.53 C4.24 7.31, 7.04 4.09, 10.63 -0.03 M7.09 10.14 C9.44 7.44, 11.78 4.73, 15.62 0.33 M7.09 10.14 C9.07 7.85, 11.06 5.57, 15.62 0.33 M12.08 10.5 C14.86 7.29, 17.65 4.08, 21.26 -0.07 M12.08 10.5 C14.83 7.32, 17.59 4.15, 21.26 -0.07 M21 6.33 C22.34 4.79, 23.68 3.25, 26.25 0.29 M21 6.33 C22.91 4.13, 24.81 1.94, 26.25 0.29 M25.99 6.69 C26.16 6.48, 26.34 6.28, 26.64 5.93 M25.99 6.69 C26.2 6.44, 26.42 6.19, 26.64 5.93 M26.64 5.93 C28.21 4.13, 29.79 2.32, 31.89 -0.1 M26.64 5.93 C28.34 3.98, 30.04 2.02, 31.89 -0.1 M31.63 6.29 C32.57 5.21, 33.51 4.14, 36.22 1.01 M31.63 6.29 C32.99 4.73, 34.36 3.16, 36.22 1.01 M0.06 9.08 C0.06 9.08, 0.06 9.08, 0.06 9.08 M0.06 9.08 C0.06 9.08, 0.06 9.08, 0.06 9.08 M5.7 8.68 C3.19 6.5, 0.69 4.32, -1.09 2.78 M5.7 8.68 C3.92 7.14, 2.15 5.6, -1.09 2.78 M12.1 8.95 C9.35 6.56, 6.61 4.17, 0.78 -0.9 M12.1 8.95 C9.35 6.56, 6.6 4.16, 0.78 -0.9 M16.99 7.89 C13.81 5.13, 10.62 2.36, 7.18 -0.63 M16.99 7.89 C13.27 4.66, 9.55 1.43, 7.18 -0.63 M20.37 5.53 C18.22 3.67, 16.07 1.8, 12.82 -1.03 M20.37 5.53 C18.26 3.7, 16.16 1.88, 12.82 -1.03 M26.76 5.79 C25.07 4.32, 23.38 2.85, 19.22 -0.77 M26.76 5.79 C23.89 3.3, 21.02 0.8, 19.22 -0.77 M33.16 6.06 C30.85 4.05, 28.55 2.04, 24.86 -1.16 M33.16 6.06 C30.67 3.89, 28.19 1.73, 24.86 -1.16 M37.3 4.35 C35.37 2.68, 33.45 1.01, 31.26 -0.9 M37.3 4.35 C35.63 2.9, 33.96 1.45, 31.26 -0.9" stroke="#b0afaf" stroke-width="0.5" fill="none"></path><path d="M0 0 C10.34 0.01, 20.69 0.02, 34.8 0.03 M0 0 C7.08 0.01, 14.17 0.01, 34.8 0.03 M34.8 0.03 C35.77 1.73, 36.74 3.43, 37.37 4.53 M34.8 0.03 C35.8 1.78, 36.8 3.52, 37.37 4.53 M37.37 4.53 C36.82 5.48, 36.27 6.42, 35.75 7.31 M37.37 4.53 C36.74 5.62, 36.11 6.7, 35.75 7.31 M35.75 7.31 C35.4 6.84, 35.05 6.37, 34.71 5.92 M35.75 7.31 C35.44 6.89, 35.12 6.47, 34.71 5.92 M34.71 5.92 C34.28 5.93, 33.84 5.94, 32.98 5.95 M34.71 5.92 C34.19 5.93, 33.66 5.94, 32.98 5.95 M32.98 5.95 C32.7 6.49, 32.41 7.03, 32.23 7.36 M32.98 5.95 C32.75 6.39, 32.51 6.83, 32.23 7.36 M32.23 7.36 C32 7.01, 31.76 6.65, 31.31 5.95 M32.23 7.36 C31.93 6.91, 31.63 6.45, 31.31 5.95 M31.31 5.95 C31.12 5.96, 30.92 5.97, 30.73 5.98 M31.31 5.95 C31.15 5.96, 30.99 5.97, 30.73 5.98 M30.73 5.98 C30.55 6.27, 30.38 6.56, 29.89 7.36 M30.73 5.98 C30.43 6.48, 30.13 6.97, 29.89 7.36 M29.89 7.36 C29.6 6.93, 29.3 6.5, 28.97 6.01 M29.89 7.36 C29.6 6.94, 29.31 6.51, 28.97 6.01 M28.97 6.01 C28.08 6, 27.2 5.99, 26.28 5.98 M28.97 6.01 C28.04 6, 27.12 5.99, 26.28 5.98 M26.28 5.98 C26.1 6.34, 25.92 6.7, 25.59 7.36 M26.28 5.98 C26.03 6.48, 25.78 6.98, 25.59 7.36 M25.59 7.36 C25.32 7.01, 25.06 6.65, 24.61 6.04 M25.59 7.36 C25.25 6.9, 24.9 6.44, 24.61 6.04 M24.61 6.04 C24.36 6.01, 24.11 5.99, 23.94 5.98 M24.61 6.04 C24.47 6.02, 24.34 6.01, 23.94 5.98 M23.94 5.98 C23.76 6.3, 23.59 6.61, 23.16 7.36 M23.94 5.98 C23.73 6.36, 23.52 6.73, 23.16 7.36 M23.16 7.36 C22.9 7.01, 22.65 6.65, 22.18 6.01 M23.16 7.36 C22.95 7.07, 22.74 6.78, 22.18 6.01 M22.18 6.01 C21.75 6, 21.33 5.99, 20.51 5.98 M22.18 6.01 C21.61 6, 21.04 5.99, 20.51 5.98 M20.51 5.98 C20.3 6.32, 20.1 6.67, 19.67 7.39 M20.51 5.98 C20.29 6.34, 20.08 6.69, 19.67 7.39 M19.67 7.39 C19.37 6.93, 19.06 6.46, 18.77 6.01 M19.67 7.39 C19.48 7.11, 19.3 6.82, 18.77 6.01 M18.77 6.01 C18.42 6, 18.08 5.99, 17.13 5.98 M18.77 6.01 C18.2 6, 17.62 5.99, 17.13 5.98 M17.13 5.98 C16.61 6.9, 16.09 7.83, 15.48 8.92 M17.13 5.98 C16.69 6.76, 16.26 7.53, 15.48 8.92 M15.48 8.92 C9.79 8.93, 4.1 8.95, -0.09 8.95 M15.48 8.92 C12.05 8.93, 8.63 8.94, -0.09 8.95 M-0.09 8.95 C-1.02 7.34, -1.95 5.72, -2.63 4.53 M-0.09 8.95 C-0.91 7.52, -1.73 6.1, -2.63 4.53 M-2.63 4.53 C-1.85 3.19, -1.07 1.85, 0 0 M-2.63 4.53 C-1.69 2.91, -0.75 1.29, 0 0 M0 0 C0 0, 0 0, 0 0 M0 0 C0 0, 0 0, 0 0" stroke="#b0afaf" stroke-width="1" fill="none"></path></g></g><g stroke-linecap="round"><g transform="translate(116.96028880866425 52.94584837545108) rotate(0 -0.43321299639001154 5.9638989169675085)" fill-rule="evenodd"><path d="M0 0 C0 0, 0 0, 0 0 M0 0 C0 0, 0 0, 0 0 M-1.57 7.91 C-1.17 7.44, -0.76 6.97, -0.26 6.4 M-1.57 7.91 C-1.11 7.37, -0.64 6.83, -0.26 6.4 M0.13 12.04 C0.56 11.55, 0.99 11.06, 2.1 9.78 M0.13 12.04 C0.56 11.55, 0.99 11.06, 2.1 9.78 M0.11 12.07 C0.11 12.07, 0.11 12.07, 0.11 12.07 M0.11 12.07 C0.11 12.07, 0.11 12.07, 0.11 12.07 M3.49 9.71 C1.58 8.05, -0.34 6.39, -2.55 4.46 M3.49 9.71 C1.27 7.78, -0.94 5.86, -2.55 4.46 M2.34 3.41 C1.57 2.74, 0.8 2.08, 0.07 1.44 M2.34 3.41 C1.69 2.85, 1.05 2.29, 0.07 1.44" stroke="#08b7e1" stroke-width="0.5" fill="none"></path><path d="M0 0 C0.45 0.02, 0.9 0.03, 1.68 0.06 M0 0 C0.35 0.01, 0.7 0.02, 1.68 0.06 M1.68 0.06 C1.97 0.57, 2.26 1.09, 2.57 1.65 M1.68 0.06 C2.03 0.69, 2.39 1.32, 2.57 1.65 M2.57 1.65 C1.77 3.03, 0.96 4.41, 0.03 6.01 M2.57 1.65 C1.86 2.86, 1.16 4.07, 0.03 6.01 M0.03 6.01 C0.69 7.16, 1.35 8.32, 2.6 10.48 M0.03 6.01 C0.64 7.07, 1.26 8.14, 2.6 10.48 M2.6 10.48 C2.39 10.83, 2.18 11.18, 1.76 11.87 M2.6 10.48 C2.31 10.97, 2.02 11.45, 1.76 11.87 M1.76 11.87 C1.34 11.88, 0.91 11.9, -0.06 11.93 M1.76 11.87 C1.3 11.88, 0.83 11.9, -0.06 11.93 M-0.06 11.93 C-0.8 10.65, -1.54 9.37, -3.47 6.04 M-0.06 11.93 C-1.4 9.6, -2.75 7.27, -3.47 6.04 M-3.47 6.04 C-2.61 4.55, -1.76 3.07, 0 0 M-3.47 6.04 C-2.47 4.3, -1.48 2.57, 0 0 M0 0 C0 0, 0 0, 0 0 M0 0 C0 0, 0 0, 0 0" stroke="#08b7e1" stroke-width="1" fill="none"></path></g></g><g stroke-linecap="round"><g transform="translate(124.67148014440454 53.0469314079412) rotate(180 -0.43321299639001154 5.9638989169675085)" fill-rule="evenodd"><path d="M0 0 C0 0, 0 0, 0 0 M0 0 C0 0, 0 0, 0 0 M-1.57 7.91 C-1.07 7.32, -0.56 6.74, -0.26 6.4 M-1.57 7.91 C-1.22 7.5, -0.87 7.1, -0.26 6.4 M0.13 12.04 C0.59 11.51, 1.05 10.98, 2.1 9.78 M0.13 12.04 C0.89 11.17, 1.64 10.31, 2.1 9.78 M0.11 12.07 C0.11 12.07, 0.11 12.07, 0.11 12.07 M0.11 12.07 C0.11 12.07, 0.11 12.07, 0.11 12.07 M3.49 9.71 C1.52 8, -0.45 6.28, -2.55 4.46 M3.49 9.71 C1.23 7.74, -1.03 5.78, -2.55 4.46 M2.34 3.41 C1.77 2.92, 1.21 2.43, 0.07 1.44 M2.34 3.41 C1.86 3, 1.39 2.58, 0.07 1.44" stroke="#08b7e1" stroke-width="0.5" fill="none"></path><path d="M0 0 C0.46 0.02, 0.91 0.03, 1.68 0.06 M0 0 C0.48 0.02, 0.96 0.03, 1.68 0.06 M1.68 0.06 C1.95 0.55, 2.23 1.04, 2.57 1.65 M1.68 0.06 C1.87 0.4, 2.06 0.75, 2.57 1.65 M2.57 1.65 C2.03 2.58, 1.48 3.51, 0.03 6.01 M2.57 1.65 C1.76 3.04, 0.94 4.44, 0.03 6.01 M0.03 6.01 C1.05 7.79, 2.07 9.57, 2.6 10.48 M0.03 6.01 C0.72 7.22, 1.42 8.42, 2.6 10.48 M2.6 10.48 C2.35 10.9, 2.1 11.31, 1.76 11.87 M2.6 10.48 C2.29 10.99, 1.99 11.5, 1.76 11.87 M1.76 11.87 C1.06 11.89, 0.35 11.91, -0.06 11.93 M1.76 11.87 C1.24 11.89, 0.72 11.9, -0.06 11.93 M-0.06 11.93 C-1 10.3, -1.94 8.68, -3.47 6.04 M-0.06 11.93 C-1.19 9.97, -2.32 8.02, -3.47 6.04 M-3.47 6.04 C-2.38 4.15, -1.3 2.26, 0 0 M-3.47 6.04 C-2.16 3.77, -0.86 1.5, 0 0 M0 0 C0 0, 0 0, 0 0 M0 0 C0 0, 0 0, 0 0" stroke="#08b7e1" stroke-width="1" fill="none"></path></g></g><g transform="translate(117.28453853808742 70.25568238660355) rotate(0 11.672597864768704 3.558718861209968)"><text x="0" y="3.11743772241993" font-family="Virgil, Segoe UI Emoji" font-size="5.693950177935943px" fill="#b0afaf" text-anchor="start" style="white-space: pre;" direction="ltr">Keycloak</text></g><g stroke-linecap="round" transform="translate(10 310) rotate(0 330 320)"><path d="M0.78 -0.41 C161.76 -1.46, 323.92 -0.5, 660.34 -0.23 M0.28 0.15 C159.56 0.31, 319.29 0.76, 660.31 -0.15 M660.68 -0.68 C661.9 173.32, 662.19 348.04, 659.73 640.58 M660.32 0.03 C661.58 195.24, 661.66 390.02, 660.19 639.8 M659.82 640.32 C483.75 638.49, 306.53 637.91, 0 639.51 M659.7 640.29 C527.72 642.33, 396.07 642.89, -0.2 639.86 M0.12 640.02 C1.05 471.97, 1.47 302.94, -0.79 0.3 M-0.37 640 C0.69 492.52, 0.46 344.35, -0.02 -0.06" stroke="#000000" stroke-width="1" fill="none"></path></g><g transform="translate(230 250) rotate(0 167.5 14)"><text x="0" y="21" font-family="Virgil, Segoe UI Emoji" font-size="20px" fill="#000000" text-anchor="start" style="white-space: pre;" direction="ltr">Externally Owned Account（EOA）</text></g><g stroke-linecap="round" transform="translate(50 430) rotate(0 60 30)"><path d="M32.49 3.97 C41.16 1.05, 54.09 -0.97, 64.7 -0.59 C75.32 -0.2, 87.57 3, 96.18 6.26 C104.78 9.51, 112.59 13.91, 116.34 18.92 C120.1 23.94, 121.19 30.79, 118.72 36.34 C116.24 41.9, 109.38 48.51, 101.5 52.23 C93.61 55.96, 81.89 57.63, 71.41 58.7 C60.92 59.76, 48.62 60.34, 38.59 58.61 C28.57 56.89, 17.55 52.7, 11.25 48.36 C4.95 44.03, 1.55 38.14, 0.8 32.59 C0.06 27.04, -0.14 20.18, 6.77 15.07 C13.68 9.96, 34.75 4.23, 42.26 1.91 C49.78 -0.41, 51.65 0.87, 51.87 1.16 M66.1 -0.73 C75.97 -0.25, 87.75 4.71, 96.29 8.11 C104.83 11.51, 113.84 14.74, 117.35 19.66 C120.87 24.58, 120.03 32.14, 117.37 37.65 C114.72 43.15, 109.22 48.97, 101.41 52.69 C93.6 56.4, 81.37 59.24, 70.52 59.94 C59.68 60.64, 46.11 58.88, 36.35 56.91 C26.58 54.95, 17.87 52.23, 11.94 48.15 C6 44.07, 1.26 38.03, 0.73 32.43 C0.2 26.84, 3.39 19.45, 8.75 14.6 C14.11 9.74, 23.08 5.52, 32.89 3.31 C42.7 1.1, 62.19 1.74, 67.6 1.32 C73.02 0.9, 65.54 0.7, 65.39 0.8" stroke="#000000" stroke-width="1" fill="none"></path></g><g transform="translate(55 447.5) rotate(0 55 12.5)"><text x="55" y="18" font-family="Virgil, Segoe UI Emoji" font-size="20px" fill="#000000" text-anchor="middle" style="white-space: pre;" direction="ltr">address</text></g><g stroke-linecap="round" transform="translate(310 370) rotate(0 130 260)"><path d="M-0.28 -0.96 C82.12 2.42, 167.52 -0.05, 259.17 0.27 M0.22 -0.39 C86.1 0.88, 173.6 0.62, 260.71 0.2 M260.66 0.61 C259.26 151.99, 260.22 303.29, 260.75 520.31 M260.23 0.07 C258.77 173.56, 258.83 348.21, 260.17 520.2 M259.02 520.89 C169.69 518.72, 78.32 517.93, -1.46 519.78 M259.36 520.18 C190.87 522.19, 120.17 522.22, -0.39 519.28 M-0.64 520.77 C-0.19 397.62, 0.31 274.57, -0.55 0.49 M0.32 520.28 C-0.11 361.26, -0.33 203.51, 0.35 -0.1" stroke="#000000" stroke-width="1" fill="none"></path></g><g transform="translate(391.0029057819538 329.96307901334933) rotate(0 72.5 12.5)"><text x="0" y="18" font-family="Virgil, Segoe UI Emoji" font-size="20px" fill="#000000" text-anchor="start" style="white-space: pre;" direction="ltr">Account state</text></g><g stroke-linecap="round" transform="translate(350 430) rotate(0 60 30)"><path d="M44.62 0.75 C54.2 -0.6, 68.45 0.78, 78.98 2.4 C89.51 4.03, 100.99 6.33, 107.81 10.52 C114.63 14.7, 118.89 22.15, 119.92 27.51 C120.95 32.88, 118.84 38.04, 114 42.69 C109.15 47.34, 100.4 52.63, 90.83 55.41 C81.26 58.18, 67.5 59.35, 56.58 59.33 C45.66 59.31, 34.13 58.13, 25.3 55.29 C16.48 52.44, 7.78 47.4, 3.62 42.27 C-0.54 37.13, -1.76 30.09, 0.35 24.47 C2.46 18.85, 6.75 12.51, 16.3 8.54 C25.85 4.56, 48.53 1.83, 57.66 0.63 C66.79 -0.57, 70.9 0.81, 71.07 1.34 M81.19 2.9 C91.12 4.44, 102.8 7.55, 109.18 11.53 C115.56 15.51, 118.79 21.21, 119.46 26.78 C120.12 32.35, 118.41 40.15, 113.16 44.96 C107.91 49.77, 97.45 53.18, 87.97 55.63 C78.49 58.08, 66.91 59.72, 56.28 59.65 C45.65 59.58, 32.89 58.55, 24.18 55.21 C15.48 51.87, 7.8 44.89, 4.06 39.61 C0.32 34.32, -0.65 28.45, 1.74 23.49 C4.12 18.52, 10.9 13.56, 18.36 9.84 C25.81 6.13, 35.94 2.43, 46.49 1.2 C57.03 -0.03, 76.21 2.42, 81.63 2.45 C87.06 2.48, 79.54 1.18, 79.05 1.38" stroke="#000000" stroke-width="1" fill="none"></path></g><g transform="translate(355 447.5) rotate(0 55 12.5)"><text x="55" y="18" font-family="Virgil, Segoe UI Emoji" font-size="20px" fill="#000000" text-anchor="middle" style="white-space: pre;" direction="ltr">balance</text></g><g stroke-linecap="round" transform="translate(350 550) rotate(0 60 30)"><path d="M87.72 2.52 C97.22 4.64, 106.05 10.87, 111.43 15.75 C116.8 20.63, 120.4 26.38, 119.96 31.8 C119.53 37.23, 115.02 43.82, 108.81 48.32 C102.6 52.81, 92.94 56.87, 82.72 58.78 C72.49 60.69, 58.07 60.8, 47.46 59.75 C36.85 58.7, 26.76 56.33, 19.08 52.48 C11.4 48.64, 4.08 42.04, 1.37 36.67 C-1.35 31.31, -0.93 25.46, 2.78 20.29 C6.49 15.11, 15.06 8.97, 23.63 5.64 C32.19 2.31, 43.07 0.56, 54.19 0.31 C65.3 0.05, 83.8 3.22, 90.3 4.11 C96.8 4.99, 93.79 5.12, 93.21 5.6 M54.02 0.61 C64.16 -0.34, 79.14 1.74, 88.6 3.99 C98.07 6.23, 105.59 9.64, 110.82 14.06 C116.05 18.49, 120.19 24.85, 119.98 30.52 C119.76 36.19, 116.06 43.74, 109.54 48.09 C103.01 52.44, 91.2 54.55, 80.81 56.63 C70.42 58.7, 57.77 61.44, 47.21 60.54 C36.65 59.63, 25.23 55.12, 17.46 51.2 C9.69 47.27, 2.86 42.21, 0.59 36.98 C-1.69 31.74, -0.13 25.04, 3.8 19.8 C7.73 14.56, 15.52 8.73, 24.18 5.55 C32.83 2.36, 50.64 1.25, 55.73 0.67 C60.82 0.09, 54.83 1.84, 54.71 2.07" stroke="#000000" stroke-width="1" fill="none"></path></g><g transform="translate(355 567.5) rotate(0 55 12.5)"><text x="55" y="18" font-family="Virgil, Segoe UI Emoji" font-size="20px" fill="#000000" text-anchor="middle" style="white-space: pre;" direction="ltr">nonce</text></g><g stroke-linecap="round"><g transform="translate(70 130) rotate(0 0.5186660669348839 99.77842895028182)"><path d="M-0.52 -0.81 C-0.53 32.45, -0.84 165.67, -0.74 199.23 M1.41 1.38 C1.84 34.81, 1.93 167.5, 1.59 200.37" stroke="#c92a2a" stroke-width="1" fill="none"></path></g><g transform="translate(70 130) rotate(0 0.5186660669348839 99.77842895028182)"><path d="M-9.92 170.9 C-7.42 179.27, -2.66 186.05, -0.26 199.57 M-9.44 171.39 C-4.07 183.05, -0.43 194.22, 1.82 200.09" stroke="#c92a2a" stroke-width="1" fill="none"></path></g><g transform="translate(70 130) rotate(0 0.5186660669348839 99.77842895028182)"><path d="M10.6 170.98 C8.04 179.24, 7.73 186, -0.26 199.57 M11.08 171.47 C8.68 182.93, 4.55 194.06, 1.82 200.09" stroke="#c92a2a" stroke-width="1" fill="none"></path></g></g></svg>